<svg height="101" viewBox="0 0 325 101" width="325" xmlns="http://www.w3.org/2000/svg" xmlns:xlink="http://www.w3.org/1999/xlink"><mask id="a" fill="#fff"><path d="m0 100.29h324.187v-100.29h-324.187z" fill="#fff" fill-rule="evenodd"/></mask><g fill="none" fill-rule="evenodd"><path d="m65.0796 43.4575c-5.066 0-9.121-3.187-9.121-7.769 0-4.583 4.055-7.77 9.121-7.77h43.021c5.067 0 9.12 3.187 9.12 7.77 0 4.582-4.053 7.769-9.12 7.769z" fill="#f69447"/><path d="m65.0796 98.999c-5.066 0-9.121-3.069-9.121-7.479 0-4.413 4.055-7.48 9.121-7.48h43.021c5.067 0 9.12 3.067 9.12 7.48 0 4.41-4.053 7.479-9.12 7.479z" fill="#00b9f0"/><path d="m65.0796 70.9404c-5.066 0-9.121-3.01-9.121-7.335 0-4.327 4.055-7.336 9.121-7.336h43.021c5.067 0 9.12 3.009 9.12 7.336 0 4.325-4.053 7.335-9.12 7.335z" fill="#a5cd38"/><g fill="#fff"><path d="m22.7803 100.29c-7.543 0-15.236-1.036-22.04-2.959v-11.094c5.621 1.924 12.721 3.106 19.23 3.106 9.763 0 14.791-3.402 14.791-9.91 0-5.471-2.958-8.133-14.791-13.164-14.645-6.212-19.97-11.833-19.97-20.857 0-11.833 9.615-19.23 24.999-19.23 7.248 0 13.461.888 21.301 2.959v11.094c-7.84-2.218-13.609-3.107-19.969-3.107-7.841 0-12.87 3.551-12.87 8.876 0 5.178 2.811 7.248 16.863 13.165 12.87 5.473 18.491 11.833 18.491 20.855 0 12.574-9.91 20.266-26.035 20.266"/><path d="m174.0235 98.663v-39.79c0-6.952-.442-10.355-2.07-13.313-2.367-4.438-6.95-7.101-12.423-7.101-6.064 0-11.389 2.96-14.349 8.137-2.514 4.437-3.401 9.763-3.401 20.265v31.802h-13.462v-70.854h12.87v13.757c5.177-10.502 12.129-15.384 22.04-15.384 9.316 0 16.86 3.994 20.708 10.799 2.514 4.289 3.55 10.354 3.55 20.265v41.417z"/><path d="m221.1114 99.8466c-15.827 0-22.04-7.249-22.04-25.885v-59.909l13.461-8.136v21.892h19.97v11.095h-19.97v36.683c0 9.614 3.106 13.017 11.686 13.017 3.107 0 5.916-.295 9.763-1.183v10.947c-5.03 1.182-8.284 1.479-12.87 1.479"/><path d="m244.722 98.663h13.461v-70.854h-13.461zm12.72-84.759c-1.33 1.332-3.548 1.924-6.064 1.924-2.662 0-4.586-.592-5.916-1.924-1.332-1.331-1.924-3.55-1.924-6.064 0-2.663.592-4.586 1.924-5.918 1.33-1.331 3.549-1.923 6.064-1.923 2.663 0 4.586.592 5.916 1.923 1.332 1.332 1.924 3.551 1.924 6.066 0 2.662-.592 4.585-1.924 5.916z" mask="url(#a)"/><path d="m311.1709 63.0156c-21.152 0-30.473 4.733-30.473 15.529 0 7.989 5.77 11.538 18.934 11.538 4.291 0 7.545-.296 11.539-1.034zm-12.722 37.274c-20.413 0-31.213-7.1-31.213-20.709 0-11.24 7.695-19.672 21.451-23.37 5.177-1.479 12.869-2.071 22.484-2.071v-3.254c0-9.911-4.29-14.053-14.496-14.053-7.988 0-16.716 2.515-23.817 6.805v-11.243c8.285-4.29 16.42-6.212 25.591-6.212 6.657 0 12.278 1.183 16.715 3.698 6.51 3.698 9.024 10.059 9.024 20.265v47.482c-7.692 1.626-17.16 2.662-25.739 2.662z" mask="url(#a)"/></g></g></svg>